<mxfile host="65bd71144e">
    <diagram id="sWTo2JRHVb5HOeHoK4x5" name="About">
        <mxGraphModel dx="1431" dy="823" grid="1" gridSize="10" guides="1" tooltips="1" connect="1" arrows="1" fold="1" page="0" pageScale="1" pageWidth="1600" pageHeight="900" math="0" shadow="0">
            <root>
                <mxCell id="0"/>
                <mxCell id="1" parent="0"/>
                <mxCell id="72" value="AutoGeneratorBatch&lt;br&gt;(Not Laravel Queue)" style="rounded=0;whiteSpace=wrap;html=1;fillColor=none;dashed=1;verticalAlign=top;align=left;" parent="1" vertex="1">
                    <mxGeometry x="720" width="1120" height="1200" as="geometry"/>
                </mxCell>
                <mxCell id="69" value="standby" style="edgeStyle=none;html=1;exitX=0.5;exitY=1;exitDx=0;exitDy=0;entryX=0.5;entryY=0;entryDx=0;entryDy=0;" parent="1" source="67" target="68" edge="1">
                    <mxGeometry relative="1" as="geometry"/>
                </mxCell>
                <mxCell id="115" value="no standby" style="edgeStyle=none;html=1;exitX=1;exitY=0.5;exitDx=0;exitDy=0;entryX=0.5;entryY=0;entryDx=0;entryDy=0;" edge="1" parent="1" source="67" target="114">
                    <mxGeometry x="-0.5" y="10" relative="1" as="geometry">
                        <Array as="points">
                            <mxPoint x="1720" y="120"/>
                        </Array>
                        <mxPoint as="offset"/>
                    </mxGeometry>
                </mxCell>
                <mxCell id="67" value="Check Video State" style="rhombus;whiteSpace=wrap;html=1;fillColor=none;" parent="1" vertex="1">
                    <mxGeometry x="1440" y="80" width="160" height="80" as="geometry"/>
                </mxCell>
                <mxCell id="71" style="edgeStyle=none;html=1;exitX=0.5;exitY=1;exitDx=0;exitDy=0;entryX=0.5;entryY=0;entryDx=0;entryDy=0;" parent="1" source="68" target="70" edge="1">
                    <mxGeometry relative="1" as="geometry"/>
                </mxCell>
                <mxCell id="68" value="Start EC2 Instance" style="rounded=0;whiteSpace=wrap;html=1;fillColor=none;" parent="1" vertex="1">
                    <mxGeometry x="1440" y="240" width="160" height="80" as="geometry"/>
                </mxCell>
                <mxCell id="75" style="edgeStyle=none;html=1;exitX=0.5;exitY=1;exitDx=0;exitDy=0;entryX=0.5;entryY=0;entryDx=0;entryDy=0;" parent="1" source="70" target="74" edge="1">
                    <mxGeometry relative="1" as="geometry"/>
                </mxCell>
                <mxCell id="70" value="Login" style="rounded=0;whiteSpace=wrap;html=1;fillColor=none;" parent="1" vertex="1">
                    <mxGeometry x="1440" y="400" width="160" height="80" as="geometry"/>
                </mxCell>
                <mxCell id="78" value="no standby" style="edgeStyle=none;html=1;exitX=1;exitY=0.5;exitDx=0;exitDy=0;entryX=0.5;entryY=0;entryDx=0;entryDy=0;" parent="1" source="74" target="77" edge="1">
                    <mxGeometry x="-0.5" y="10" relative="1" as="geometry">
                        <Array as="points">
                            <mxPoint x="1720" y="600"/>
                        </Array>
                        <mxPoint as="offset"/>
                    </mxGeometry>
                </mxCell>
                <mxCell id="79" value="standby" style="edgeStyle=none;html=1;exitX=0.5;exitY=1;exitDx=0;exitDy=0;entryX=0.5;entryY=0;entryDx=0;entryDy=0;" parent="1" source="74" target="76" edge="1">
                    <mxGeometry relative="1" as="geometry"/>
                </mxCell>
                <mxCell id="74" value="Check Video State" style="rhombus;whiteSpace=wrap;html=1;fillColor=none;" parent="1" vertex="1">
                    <mxGeometry x="1440" y="560" width="160" height="80" as="geometry"/>
                </mxCell>
                <mxCell id="83" style="edgeStyle=none;html=1;exitX=0.5;exitY=1;exitDx=0;exitDy=0;entryX=0.5;entryY=0;entryDx=0;entryDy=0;" parent="1" source="76" target="82" edge="1">
                    <mxGeometry relative="1" as="geometry"/>
                </mxCell>
                <mxCell id="76" value="Update Video State&lt;br&gt;(active)" style="rounded=0;whiteSpace=wrap;html=1;fillColor=none;" parent="1" vertex="1">
                    <mxGeometry x="1440" y="720" width="160" height="80" as="geometry"/>
                </mxCell>
                <mxCell id="KJqGeVJor_5fu2AJgVUs-117" style="edgeStyle=none;html=1;exitX=0.5;exitY=1;exitDx=0;exitDy=0;entryX=0.5;entryY=0;entryDx=0;entryDy=0;" parent="1" source="77" target="KJqGeVJor_5fu2AJgVUs-114" edge="1">
                    <mxGeometry relative="1" as="geometry"/>
                </mxCell>
                <mxCell id="77" value="Stop EC2 Instance" style="rounded=0;whiteSpace=wrap;html=1;fillColor=none;" parent="1" vertex="1">
                    <mxGeometry x="1640" y="720" width="160" height="80" as="geometry"/>
                </mxCell>
                <mxCell id="85" style="edgeStyle=none;html=1;exitX=0.5;exitY=1;exitDx=0;exitDy=0;entryX=0.5;entryY=0;entryDx=0;entryDy=0;" parent="1" source="81" target="74" edge="1">
                    <mxGeometry relative="1" as="geometry">
                        <Array as="points">
                            <mxPoint x="1520" y="1160"/>
                            <mxPoint x="1400" y="1160"/>
                            <mxPoint x="1400" y="520"/>
                            <mxPoint x="1520" y="520"/>
                        </Array>
                    </mxGeometry>
                </mxCell>
                <mxCell id="81" value="Update Video State&lt;br&gt;(success / failure)" style="rounded=0;whiteSpace=wrap;html=1;fillColor=none;" parent="1" vertex="1">
                    <mxGeometry x="1440" y="1040" width="160" height="80" as="geometry"/>
                </mxCell>
                <mxCell id="84" style="edgeStyle=none;html=1;exitX=0.5;exitY=1;exitDx=0;exitDy=0;entryX=0.5;entryY=0;entryDx=0;entryDy=0;" parent="1" source="82" target="81" edge="1">
                    <mxGeometry relative="1" as="geometry"/>
                </mxCell>
                <mxCell id="82" value="Add Video" style="rounded=0;whiteSpace=wrap;html=1;fillColor=none;" parent="1" vertex="1">
                    <mxGeometry x="1440" y="880" width="160" height="80" as="geometry"/>
                </mxCell>
                <mxCell id="86" value="Request" style="rounded=0;whiteSpace=wrap;html=1;fillColor=none;dashed=1;verticalAlign=top;align=left;" parent="1" vertex="1">
                    <mxGeometry width="240" height="640" as="geometry"/>
                </mxCell>
                <mxCell id="91" style="edgeStyle=none;html=1;exitX=0.5;exitY=1;exitDx=0;exitDy=0;entryX=0.5;entryY=0;entryDx=0;entryDy=0;" parent="1" source="87" target="88" edge="1">
                    <mxGeometry relative="1" as="geometry"/>
                </mxCell>
                <mxCell id="87" value="Start Request" style="rounded=1;whiteSpace=wrap;html=1;fillColor=none;" parent="1" vertex="1">
                    <mxGeometry x="40" y="40" width="160" height="80" as="geometry"/>
                </mxCell>
                <mxCell id="92" value="Request Table ID" style="edgeStyle=none;html=1;exitX=0.5;exitY=1;exitDx=0;exitDy=0;entryX=0.5;entryY=0;entryDx=0;entryDy=0;" parent="1" source="88" target="89" edge="1">
                    <mxGeometry relative="1" as="geometry"/>
                </mxCell>
                <mxCell id="88" value="Add Request Table" style="rounded=0;whiteSpace=wrap;html=1;fillColor=none;" parent="1" vertex="1">
                    <mxGeometry x="40" y="200" width="160" height="80" as="geometry"/>
                </mxCell>
                <mxCell id="93" style="edgeStyle=none;html=1;exitX=0.5;exitY=1;exitDx=0;exitDy=0;entryX=0.5;entryY=0;entryDx=0;entryDy=0;" parent="1" source="89" target="90" edge="1">
                    <mxGeometry relative="1" as="geometry"/>
                </mxCell>
                <mxCell id="89" value="Add Video Table" style="rounded=0;whiteSpace=wrap;html=1;fillColor=none;" parent="1" vertex="1">
                    <mxGeometry x="40" y="360" width="160" height="80" as="geometry"/>
                </mxCell>
                <mxCell id="90" value="Finish Request" style="rounded=1;whiteSpace=wrap;html=1;fillColor=none;" parent="1" vertex="1">
                    <mxGeometry x="40" y="520" width="160" height="80" as="geometry"/>
                </mxCell>
                <mxCell id="94" value="auto_generator_request_table" style="swimlane;fontStyle=0;childLayout=stackLayout;horizontal=1;startSize=30;horizontalStack=0;resizeParent=1;resizeParentMax=0;resizeLast=0;collapsible=1;marginBottom=0;whiteSpace=wrap;html=1;" parent="1" vertex="1">
                    <mxGeometry x="360" y="40" width="240" height="180" as="geometry"/>
                </mxCell>
                <mxCell id="95" value="id" style="text;strokeColor=none;fillColor=none;align=left;verticalAlign=middle;spacingLeft=4;spacingRight=4;overflow=hidden;points=[[0,0.5],[1,0.5]];portConstraint=eastwest;rotatable=0;whiteSpace=wrap;html=1;dashed=1;" parent="94" vertex="1">
                    <mxGeometry y="30" width="240" height="30" as="geometry"/>
                </mxCell>
                <mxCell id="96" value="email" style="text;strokeColor=none;fillColor=none;align=left;verticalAlign=middle;spacingLeft=4;spacingRight=4;overflow=hidden;points=[[0,0.5],[1,0.5]];portConstraint=eastwest;rotatable=0;whiteSpace=wrap;html=1;" parent="94" vertex="1">
                    <mxGeometry y="60" width="240" height="30" as="geometry"/>
                </mxCell>
                <mxCell id="98" value="password" style="text;strokeColor=none;fillColor=none;align=left;verticalAlign=middle;spacingLeft=4;spacingRight=4;overflow=hidden;points=[[0,0.5],[1,0.5]];portConstraint=eastwest;rotatable=0;whiteSpace=wrap;html=1;" parent="94" vertex="1">
                    <mxGeometry y="90" width="240" height="30" as="geometry"/>
                </mxCell>
                <mxCell id="97" value="mylist_title" style="text;strokeColor=none;fillColor=none;align=left;verticalAlign=middle;spacingLeft=4;spacingRight=4;overflow=hidden;points=[[0,0.5],[1,0.5]];portConstraint=eastwest;rotatable=0;whiteSpace=wrap;html=1;" parent="94" vertex="1">
                    <mxGeometry y="120" width="240" height="30" as="geometry"/>
                </mxCell>
                <mxCell id="110" value="state" style="text;strokeColor=none;fillColor=none;align=left;verticalAlign=middle;spacingLeft=4;spacingRight=4;overflow=hidden;points=[[0,0.5],[1,0.5]];portConstraint=eastwest;rotatable=0;whiteSpace=wrap;html=1;" parent="94" vertex="1">
                    <mxGeometry y="150" width="240" height="30" as="geometry"/>
                </mxCell>
                <mxCell id="99" value="auto_generator_video_table" style="swimlane;fontStyle=0;childLayout=stackLayout;horizontal=1;startSize=30;horizontalStack=0;resizeParent=1;resizeParentMax=0;resizeLast=0;collapsible=1;marginBottom=0;whiteSpace=wrap;html=1;" parent="1" vertex="1">
                    <mxGeometry x="360" y="400" width="240" height="150" as="geometry"/>
                </mxCell>
                <mxCell id="100" value="id" style="text;strokeColor=none;fillColor=none;align=left;verticalAlign=middle;spacingLeft=4;spacingRight=4;overflow=hidden;points=[[0,0.5],[1,0.5]];portConstraint=eastwest;rotatable=0;whiteSpace=wrap;html=1;dashed=1;" parent="99" vertex="1">
                    <mxGeometry y="30" width="240" height="30" as="geometry"/>
                </mxCell>
                <mxCell id="101" value="request_id" style="text;strokeColor=none;fillColor=none;align=left;verticalAlign=middle;spacingLeft=4;spacingRight=4;overflow=hidden;points=[[0,0.5],[1,0.5]];portConstraint=eastwest;rotatable=0;whiteSpace=wrap;html=1;" parent="99" vertex="1">
                    <mxGeometry y="60" width="240" height="30" as="geometry"/>
                </mxCell>
                <mxCell id="102" value="video_id" style="text;strokeColor=none;fillColor=none;align=left;verticalAlign=middle;spacingLeft=4;spacingRight=4;overflow=hidden;points=[[0,0.5],[1,0.5]];portConstraint=eastwest;rotatable=0;whiteSpace=wrap;html=1;" parent="99" vertex="1">
                    <mxGeometry y="90" width="240" height="30" as="geometry"/>
                </mxCell>
                <mxCell id="103" value="state" style="text;strokeColor=none;fillColor=none;align=left;verticalAlign=middle;spacingLeft=4;spacingRight=4;overflow=hidden;points=[[0,0.5],[1,0.5]];portConstraint=eastwest;rotatable=0;whiteSpace=wrap;html=1;" parent="99" vertex="1">
                    <mxGeometry y="120" width="240" height="30" as="geometry"/>
                </mxCell>
                <mxCell id="109" value="State:&lt;br&gt;&amp;nbsp; - standby&lt;br&gt;&amp;nbsp; - active&lt;br&gt;&amp;nbsp; - success&lt;br&gt;&amp;nbsp; - failure" style="text;html=1;strokeColor=none;fillColor=none;align=left;verticalAlign=top;whiteSpace=wrap;rounded=0;dashed=1;" parent="1" vertex="1">
                    <mxGeometry x="370" y="560" width="70" height="90" as="geometry"/>
                </mxCell>
                <mxCell id="111" value="State:&lt;br&gt;&amp;nbsp; - standby&lt;br&gt;&amp;nbsp; - create_mylist&lt;br&gt;&amp;nbsp; - add_video&lt;br&gt;&amp;nbsp; - finish" style="text;html=1;strokeColor=none;fillColor=none;align=left;verticalAlign=top;whiteSpace=wrap;rounded=0;dashed=1;" parent="1" vertex="1">
                    <mxGeometry x="370" y="230" width="100" height="90" as="geometry"/>
                </mxCell>
                <mxCell id="113" style="edgeStyle=none;html=1;exitX=1;exitY=0.5;exitDx=0;exitDy=0;entryX=0;entryY=0.5;entryDx=0;entryDy=0;" parent="1" source="95" target="101" edge="1">
                    <mxGeometry relative="1" as="geometry">
                        <Array as="points">
                            <mxPoint x="640" y="85"/>
                            <mxPoint x="640" y="360"/>
                            <mxPoint x="320" y="360"/>
                            <mxPoint x="320" y="475"/>
                        </Array>
                    </mxGeometry>
                </mxCell>
                <mxCell id="KJqGeVJor_5fu2AJgVUs-120" value="standby" style="edgeStyle=none;html=1;exitX=0;exitY=0.5;exitDx=0;exitDy=0;entryX=0.5;entryY=0;entryDx=0;entryDy=0;" parent="1" source="KJqGeVJor_5fu2AJgVUs-113" target="KJqGeVJor_5fu2AJgVUs-126" edge="1">
                    <mxGeometry x="-0.5" y="-10" relative="1" as="geometry">
                        <Array as="points">
                            <mxPoint x="840" y="120"/>
                        </Array>
                        <mxPoint as="offset"/>
                    </mxGeometry>
                </mxCell>
                <mxCell id="118" value="create_mylist / finish" style="edgeStyle=none;html=1;exitX=1;exitY=0.5;exitDx=0;exitDy=0;entryX=0.5;entryY=0;entryDx=0;entryDy=0;" edge="1" parent="1" source="KJqGeVJor_5fu2AJgVUs-113" target="117">
                    <mxGeometry x="-0.5" y="10" relative="1" as="geometry">
                        <Array as="points">
                            <mxPoint x="1240" y="120"/>
                        </Array>
                        <mxPoint as="offset"/>
                    </mxGeometry>
                </mxCell>
                <mxCell id="119" value="add_video" style="edgeStyle=none;html=1;exitX=0.5;exitY=1;exitDx=0;exitDy=0;entryX=0.5;entryY=0;entryDx=0;entryDy=0;" edge="1" parent="1" source="KJqGeVJor_5fu2AJgVUs-113" target="67">
                    <mxGeometry x="-0.9697" relative="1" as="geometry">
                        <Array as="points">
                            <mxPoint x="1040" y="400"/>
                            <mxPoint x="1360" y="400"/>
                            <mxPoint x="1360" y="40"/>
                            <mxPoint x="1520" y="40"/>
                        </Array>
                        <mxPoint as="offset"/>
                    </mxGeometry>
                </mxCell>
                <mxCell id="KJqGeVJor_5fu2AJgVUs-113" value="Check Request State" style="rhombus;whiteSpace=wrap;html=1;fillColor=none;" parent="1" vertex="1">
                    <mxGeometry x="960" y="80" width="160" height="80" as="geometry"/>
                </mxCell>
                <mxCell id="KJqGeVJor_5fu2AJgVUs-114" value="Update Request State&lt;br&gt;(finish)" style="rounded=0;whiteSpace=wrap;html=1;fillColor=none;" parent="1" vertex="1">
                    <mxGeometry x="1640" y="880" width="160" height="80" as="geometry"/>
                </mxCell>
                <mxCell id="KJqGeVJor_5fu2AJgVUs-122" style="edgeStyle=none;html=1;exitX=0.5;exitY=1;exitDx=0;exitDy=0;entryX=0.5;entryY=0;entryDx=0;entryDy=0;" parent="1" source="KJqGeVJor_5fu2AJgVUs-119" target="KJqGeVJor_5fu2AJgVUs-121" edge="1">
                    <mxGeometry relative="1" as="geometry"/>
                </mxCell>
                <mxCell id="KJqGeVJor_5fu2AJgVUs-119" value="Start EC2 Instance" style="rounded=0;whiteSpace=wrap;html=1;fillColor=none;" parent="1" vertex="1">
                    <mxGeometry x="760" y="400" width="160" height="80" as="geometry"/>
                </mxCell>
                <mxCell id="KJqGeVJor_5fu2AJgVUs-130" style="edgeStyle=none;html=1;exitX=0.5;exitY=1;exitDx=0;exitDy=0;entryX=0.5;entryY=0;entryDx=0;entryDy=0;startArrow=none;startFill=0;" parent="1" source="KJqGeVJor_5fu2AJgVUs-121" target="KJqGeVJor_5fu2AJgVUs-128" edge="1">
                    <mxGeometry relative="1" as="geometry"/>
                </mxCell>
                <mxCell id="KJqGeVJor_5fu2AJgVUs-121" value="Login" style="rounded=0;whiteSpace=wrap;html=1;fillColor=none;" parent="1" vertex="1">
                    <mxGeometry x="760" y="560" width="160" height="80" as="geometry"/>
                </mxCell>
                <mxCell id="KJqGeVJor_5fu2AJgVUs-127" style="edgeStyle=none;html=1;exitX=0.5;exitY=1;exitDx=0;exitDy=0;entryX=0.5;entryY=0;entryDx=0;entryDy=0;" parent="1" source="KJqGeVJor_5fu2AJgVUs-126" target="KJqGeVJor_5fu2AJgVUs-119" edge="1">
                    <mxGeometry relative="1" as="geometry"/>
                </mxCell>
                <mxCell id="KJqGeVJor_5fu2AJgVUs-126" value="Update Request State&lt;br&gt;(create_mylist)" style="rounded=0;whiteSpace=wrap;html=1;fillColor=none;" parent="1" vertex="1">
                    <mxGeometry x="760" y="240" width="160" height="80" as="geometry"/>
                </mxCell>
                <mxCell id="KJqGeVJor_5fu2AJgVUs-132" style="edgeStyle=none;html=1;exitX=0.5;exitY=1;exitDx=0;exitDy=0;entryX=0.5;entryY=0;entryDx=0;entryDy=0;startArrow=none;startFill=0;" parent="1" source="KJqGeVJor_5fu2AJgVUs-128" target="KJqGeVJor_5fu2AJgVUs-131" edge="1">
                    <mxGeometry relative="1" as="geometry"/>
                </mxCell>
                <mxCell id="KJqGeVJor_5fu2AJgVUs-128" value="Create Mylist" style="rounded=0;whiteSpace=wrap;html=1;fillColor=none;" parent="1" vertex="1">
                    <mxGeometry x="760" y="720" width="160" height="80" as="geometry"/>
                </mxCell>
                <mxCell id="120" style="edgeStyle=none;html=1;exitX=0.5;exitY=1;exitDx=0;exitDy=0;entryX=0.5;entryY=0;entryDx=0;entryDy=0;" edge="1" parent="1" source="KJqGeVJor_5fu2AJgVUs-131" target="67">
                    <mxGeometry relative="1" as="geometry">
                        <mxPoint x="1300" y="400" as="targetPoint"/>
                        <Array as="points">
                            <mxPoint x="840" y="1000"/>
                            <mxPoint x="1360" y="1000"/>
                            <mxPoint x="1360" y="40"/>
                            <mxPoint x="1520" y="40"/>
                        </Array>
                    </mxGeometry>
                </mxCell>
                <mxCell id="KJqGeVJor_5fu2AJgVUs-131" value="Update Request State&lt;br&gt;(add_video)" style="rounded=0;whiteSpace=wrap;html=1;fillColor=none;" parent="1" vertex="1">
                    <mxGeometry x="760" y="880" width="160" height="80" as="geometry"/>
                </mxCell>
                <mxCell id="114" value="Finish" style="rounded=0;whiteSpace=wrap;html=1;fillColor=none;" vertex="1" parent="1">
                    <mxGeometry x="1640" y="240" width="160" height="80" as="geometry"/>
                </mxCell>
                <mxCell id="117" value="Finish" style="rounded=0;whiteSpace=wrap;html=1;fillColor=none;" vertex="1" parent="1">
                    <mxGeometry x="1160" y="240" width="160" height="80" as="geometry"/>
                </mxCell>
            </root>
        </mxGraphModel>
    </diagram>
    <diagram id="ATQwuXF4aIlAJegVu6kh" name="Component">
        <mxGraphModel dx="-1014" dy="392" grid="1" gridSize="10" guides="1" tooltips="1" connect="1" arrows="1" fold="1" page="0" pageScale="1" pageWidth="1600" pageHeight="900" math="0" shadow="0">
            <root>
                <mxCell id="0"/>
                <mxCell id="1" parent="0"/>
                <mxCell id="7EZysvjOZZAMbth5Q6qy-29" value="&lt;font style=&quot;font-size: 13px;&quot;&gt;Selenium Server&lt;/font&gt;" style="rounded=1;whiteSpace=wrap;html=1;fillColor=none;fontSize=13;" parent="1" vertex="1">
                    <mxGeometry x="2840" y="1240" width="160" height="80" as="geometry"/>
                </mxCell>
                <mxCell id="7EZysvjOZZAMbth5Q6qy-30" value="Batch" style="rounded=0;whiteSpace=wrap;html=1;fontSize=13;fillColor=none;align=left;verticalAlign=bottom;dashed=1;" parent="1" vertex="1">
                    <mxGeometry x="2480" y="760" width="240" height="160" as="geometry"/>
                </mxCell>
                <mxCell id="kYwk0Yuz-chbymsGJy9v-8" style="edgeStyle=none;html=1;exitX=1;exitY=0.5;exitDx=0;exitDy=0;entryX=0;entryY=0.5;entryDx=0;entryDy=0;startArrow=classic;startFill=1;" parent="1" source="7EZysvjOZZAMbth5Q6qy-32" target="kYwk0Yuz-chbymsGJy9v-2" edge="1">
                    <mxGeometry relative="1" as="geometry"/>
                </mxCell>
                <mxCell id="kYwk0Yuz-chbymsGJy9v-9" style="edgeStyle=none;html=1;exitX=1;exitY=0.5;exitDx=0;exitDy=0;entryX=0;entryY=0.5;entryDx=0;entryDy=0;startArrow=classic;startFill=1;" parent="1" source="7EZysvjOZZAMbth5Q6qy-32" target="kYwk0Yuz-chbymsGJy9v-4" edge="1">
                    <mxGeometry relative="1" as="geometry">
                        <Array as="points">
                            <mxPoint x="2760" y="840"/>
                            <mxPoint x="2760" y="1080"/>
                        </Array>
                    </mxGeometry>
                </mxCell>
                <mxCell id="7EZysvjOZZAMbth5Q6qy-32" value="&lt;span style=&quot;font-size: 12px; text-align: left;&quot;&gt;Automatic Niconico&lt;br&gt;Mylist Generator Batch&lt;/span&gt;" style="rounded=1;whiteSpace=wrap;html=1;fillColor=none;fontSize=13;" parent="1" vertex="1">
                    <mxGeometry x="2520" y="800" width="160" height="80" as="geometry"/>
                </mxCell>
                <mxCell id="7EZysvjOZZAMbth5Q6qy-38" value="Service" style="rounded=0;whiteSpace=wrap;html=1;fontSize=13;fillColor=none;align=left;verticalAlign=bottom;dashed=1;" parent="1" vertex="1">
                    <mxGeometry x="2480" y="400" width="240" height="160" as="geometry"/>
                </mxCell>
                <mxCell id="7EZysvjOZZAMbth5Q6qy-39" value="Helper" style="rounded=0;whiteSpace=wrap;html=1;fontSize=13;fillColor=none;align=left;verticalAlign=bottom;dashed=1;" parent="1" vertex="1">
                    <mxGeometry x="2800" y="400" width="240" height="280" as="geometry"/>
                </mxCell>
                <mxCell id="xn-UdhNYjjH1gmHuBQE2-4" style="edgeStyle=none;html=1;exitX=1;exitY=0.5;exitDx=0;exitDy=0;entryX=0;entryY=0.5;entryDx=0;entryDy=0;startArrow=classic;startFill=1;" parent="1" source="7EZysvjOZZAMbth5Q6qy-40" target="7EZysvjOZZAMbth5Q6qy-43" edge="1">
                    <mxGeometry relative="1" as="geometry">
                        <Array as="points">
                            <mxPoint x="2760" y="480"/>
                            <mxPoint x="2760" y="600"/>
                        </Array>
                    </mxGeometry>
                </mxCell>
                <mxCell id="kYwk0Yuz-chbymsGJy9v-7" style="edgeStyle=none;html=1;exitX=1;exitY=0.5;exitDx=0;exitDy=0;entryX=0;entryY=0.5;entryDx=0;entryDy=0;startArrow=classic;startFill=1;" parent="1" source="7EZysvjOZZAMbth5Q6qy-40" target="7EZysvjOZZAMbth5Q6qy-44" edge="1">
                    <mxGeometry relative="1" as="geometry"/>
                </mxCell>
                <mxCell id="7EZysvjOZZAMbth5Q6qy-40" value="Automatic Niconico&lt;br&gt;Mylist Generator Service" style="rounded=1;whiteSpace=wrap;html=1;fillColor=none;fontSize=13;" parent="1" vertex="1">
                    <mxGeometry x="2520" y="440" width="160" height="80" as="geometry"/>
                </mxCell>
                <mxCell id="7EZysvjOZZAMbth5Q6qy-43" value="Mylist Assistant Helper" style="rounded=1;whiteSpace=wrap;html=1;fillColor=none;fontSize=13;" parent="1" vertex="1">
                    <mxGeometry x="2840" y="560" width="160" height="80" as="geometry"/>
                </mxCell>
                <mxCell id="7EZysvjOZZAMbth5Q6qy-44" value="Authentication Helper" style="rounded=1;whiteSpace=wrap;html=1;fillColor=none;fontSize=13;" parent="1" vertex="1">
                    <mxGeometry x="2840" y="440" width="160" height="80" as="geometry"/>
                </mxCell>
                <mxCell id="kYwk0Yuz-chbymsGJy9v-1" value="Service" style="rounded=0;whiteSpace=wrap;html=1;fontSize=13;fillColor=none;align=left;verticalAlign=bottom;dashed=1;" parent="1" vertex="1">
                    <mxGeometry x="2800" y="760" width="240" height="160" as="geometry"/>
                </mxCell>
                <mxCell id="kYwk0Yuz-chbymsGJy9v-2" value="AWS Service" style="rounded=1;whiteSpace=wrap;html=1;fillColor=none;fontSize=13;" parent="1" vertex="1">
                    <mxGeometry x="2840" y="800" width="160" height="80" as="geometry"/>
                </mxCell>
                <mxCell id="kYwk0Yuz-chbymsGJy9v-3" value="Helper" style="rounded=0;whiteSpace=wrap;html=1;fontSize=13;fillColor=none;align=left;verticalAlign=bottom;dashed=1;" parent="1" vertex="1">
                    <mxGeometry x="2800" y="1000" width="240" height="170" as="geometry"/>
                </mxCell>
                <mxCell id="kYwk0Yuz-chbymsGJy9v-10" style="edgeStyle=none;html=1;exitX=0.5;exitY=1;exitDx=0;exitDy=0;entryX=0.5;entryY=0;entryDx=0;entryDy=0;startArrow=classic;startFill=1;" parent="1" source="kYwk0Yuz-chbymsGJy9v-4" target="7EZysvjOZZAMbth5Q6qy-29" edge="1">
                    <mxGeometry relative="1" as="geometry"/>
                </mxCell>
                <mxCell id="kYwk0Yuz-chbymsGJy9v-4" value="Selenium Helper" style="rounded=1;whiteSpace=wrap;html=1;fillColor=none;fontSize=13;" parent="1" vertex="1">
                    <mxGeometry x="2840" y="1040" width="160" height="80" as="geometry"/>
                </mxCell>
            </root>
        </mxGraphModel>
    </diagram>
</mxfile>